<?xml version="1.0" encoding="utf-8"?>
<!-- Generator: Adobe Illustrator 22.0.0, SVG Export Plug-In . SVG Version: 6.00 Build 0)  -->
<svg version="1.1" id="Layer_1" xmlns="http://www.w3.org/2000/svg" xmlns:xlink="http://www.w3.org/1999/xlink" x="0px" y="0px"
	 viewBox="0 0 960 560" style="enable-background:new 0 0 960 560;" xml:space="preserve">
<style type="text/css">
	.st0{fill:#0C0707;}
	.st1{fill:#EF0F0F;}
	.st2{fill:#F40F0F;}
	.st3{fill:#EF1616;}
</style>
<g>
	<g>
		<circle class="st0" cx="257.5" cy="244.5" r="35"/>
		<path d="M257.5,210c19,0,34.5,15.5,34.5,34.5S276.5,279,257.5,279S223,263.5,223,244.5S238.5,210,257.5,210 M257.5,209
			c-19.6,0-35.5,15.9-35.5,35.5s15.9,35.5,35.5,35.5s35.5-15.9,35.5-35.5S277.1,209,257.5,209L257.5,209z"/>
	</g>
	<g>
		<circle class="st0" cx="305.5" cy="243.5" r="35"/>
		<path d="M305.5,209c19,0,34.5,15.5,34.5,34.5S324.5,278,305.5,278S271,262.5,271,243.5S286.5,209,305.5,209 M305.5,208
			c-19.6,0-35.5,15.9-35.5,35.5s15.9,35.5,35.5,35.5s35.5-15.9,35.5-35.5S325.1,208,305.5,208L305.5,208z"/>
	</g>
	<g>
		
			<rect x="248.5" y="183.5" transform="matrix(0.6796 -0.7336 0.7336 0.6796 -68.01 274.2795)" class="st0" width="63" height="63"/>
		<path d="M278.3,171.2l45.5,42.1l-42.1,45.5l-45.5-42.1L278.3,171.2 M278.3,169.8l-43.5,46.9l46.9,43.5l43.5-46.9L278.3,169.8
			L278.3,169.8z"/>
	</g>
	<g>
		<rect x="279.5" y="266.5" class="st0" width="6" height="23"/>
		<path d="M285,267v22h-5v-22H285 M286,266h-7v24h7V266L286,266z"/>
	</g>
</g>
<g>
	<path class="st1" d="M469.4,256.4c-9.3-0.1-18.1-3.7-24.7-10.4s-10.2-15.5-10.1-24.8c0.1-19.2,15.8-34.8,35-34.8l0.2,0
		c9.3,0.1,18.1,3.7,24.7,10.4c6.6,6.7,10.2,15.5,10.1,24.8c-0.1,19.2-15.8,34.8-35,34.8L469.4,256.4z"/>
	<path class="st2" d="M469.6,186.9L469.6,186.9l0.2,0c9.2,0.1,17.9,3.7,24.3,10.3c6.5,6.6,10,15.2,10,24.5
		c-0.1,18.9-15.6,34.3-34.5,34.3l-0.2,0c-19-0.1-34.4-15.7-34.3-34.7C435.2,202.3,450.7,186.9,469.6,186.9 M469.6,185.9
		c-19.5,0-35.4,15.8-35.5,35.3c-0.1,19.6,15.7,35.6,35.3,35.7c0.1,0,0.1,0,0.2,0c19.5,0,35.4-15.8,35.5-35.3
		c0.1-19.6-15.7-35.6-35.3-35.7C469.8,185.9,469.7,185.9,469.6,185.9L469.6,185.9z"/>
</g>
<g>
	<path class="st1" d="M421.4,257.1c-19.3-0.1-34.9-15.9-34.8-35.2c0.1-19.2,15.8-34.8,35-34.8l0.2,0c9.3,0.1,18.1,3.8,24.7,10.4
		s10.2,15.5,10.1,24.8c-0.1,19.2-15.8,34.8-35,34.8L421.4,257.1z"/>
	<path class="st2" d="M421.6,187.6L421.6,187.6l0.2,0c9.2,0.1,17.9,3.7,24.3,10.3c6.5,6.6,10,15.2,10,24.5
		c-0.1,18.9-15.6,34.3-34.5,34.3l-0.2,0c-19-0.1-34.4-15.7-34.3-34.7C387.2,203,402.7,187.6,421.6,187.6 M421.6,186.6
		c-19.5,0-35.4,15.8-35.5,35.3c-0.1,19.6,15.7,35.6,35.3,35.7c0.1,0,0.1,0,0.2,0c19.5,0,35.4-15.8,35.5-35.3
		c0.1-19.6-15.7-35.6-35.3-35.7C421.8,186.6,421.7,186.6,421.6,186.6L421.6,186.6z"/>
</g>
<g>
	<rect x="415.4" y="219.3" transform="matrix(0.684 -0.7295 0.7295 0.684 -41.7168 405.2669)" class="st1" width="63" height="63"/>
	<path class="st2" d="M445.5,207l45.2,42.4l-42.4,45.2l-45.2-42.4L445.5,207 M445.5,205.6l-43.8,46.7l46.7,43.8l43.8-46.7
		L445.5,205.6L445.5,205.6z"/>
</g>
<g>
	
		<rect x="239.1" y="342.2" transform="matrix(0.7071 -0.7071 0.7071 0.7071 -190.1566 313.2103)" class="st2" width="87.9" height="87.9"/>
	<path class="st3" d="M283,324.7l61.4,61.4L283,447.6l-61.4-61.4L283,324.7 M283,323.3l-62.9,62.9L283,449l62.9-62.9L283,323.3
		L283,323.3z"/>
</g>
<g>
	<g>
		<path class="st0" d="M447,374c-17.8,0-32.3-14-32.3-31.2c0-17.2,14.5-31.2,32.3-31.2s32.3,14,32.3,31.2
			C479.2,360,464.7,374,447,374z"/>
		<path d="M447,312c17.5,0,31.8,13.8,31.8,30.7c0,16.9-14.2,30.7-31.8,30.7s-31.8-13.8-31.8-30.7C415.2,325.8,429.5,312,447,312
			 M447,311c-18.1,0-32.8,14.2-32.8,31.7c0,17.5,14.7,31.7,32.8,31.7c18.1,0,32.8-14.2,32.8-31.7C479.7,325.2,465,311,447,311
			L447,311z"/>
	</g>
	<g>
		<path class="st0" d="M479.3,428.5c-17.8,0-32.3-14-32.3-31.2c0-17.2,14.5-31.2,32.3-31.2c17.8,0,32.3,14,32.3,31.2
			C511.5,414.5,497,428.5,479.3,428.5z"/>
		<path d="M479.3,366.5c17.5,0,31.8,13.8,31.8,30.7c0,16.9-14.2,30.7-31.8,30.7s-31.8-13.8-31.8-30.7
			C447.5,380.3,461.7,366.5,479.3,366.5 M479.3,365.5c-18.1,0-32.8,14.2-32.8,31.7c0,17.5,14.7,31.7,32.8,31.7s32.8-14.2,32.8-31.7
			C512,379.7,497.3,365.5,479.3,365.5L479.3,365.5z"/>
	</g>
	<g>
		<path class="st0" d="M413.8,428.5c-17.8,0-32.3-14-32.3-31.2c0-17.2,14.5-31.2,32.3-31.2s32.3,14,32.3,31.2
			C446,414.5,431.5,428.5,413.8,428.5z"/>
		<path d="M413.8,366.5c17.5,0,31.8,13.8,31.8,30.7c0,16.9-14.2,30.7-31.8,30.7S382,414.2,382,397.3
			C382,380.3,396.2,366.5,413.8,366.5 M413.8,365.5c-18.1,0-32.8,14.2-32.8,31.7c0,17.5,14.7,31.7,32.8,31.7s32.8-14.2,32.8-31.7
			C446.5,379.7,431.8,365.5,413.8,365.5L413.8,365.5z"/>
	</g>
	<g>
		<rect x="444.2" y="406.3" class="st0" width="5.5" height="20.5"/>
		<path d="M449.2,406.8v19.5h-4.5v-19.5H449.2 M450.2,405.8h-6.5v21.5h6.5V405.8L450.2,405.8z"/>
	</g>
	<g>
		<ellipse class="st0" cx="444.7" cy="386.1" rx="20.7" ry="20.1"/>
		<path d="M444.7,366.5c11.1,0,20.2,8.8,20.2,19.6s-9.1,19.6-20.2,19.6s-20.2-8.8-20.2-19.6S433.5,366.5,444.7,366.5 M444.7,365.5
			c-11.7,0-21.2,9.2-21.2,20.6s9.5,20.6,21.2,20.6c11.7,0,21.2-9.2,21.2-20.6S456.4,365.5,444.7,365.5L444.7,365.5z"/>
	</g>
</g>
</svg>
